<mxfile host="app.diagrams.net" modified="2021-08-14T05:12:14.386Z" agent="5.0 (Windows NT 10.0; Win64; x64) AppleWebKit/537.36 (KHTML, like Gecko) Chrome/92.0.4515.131 Safari/537.36" etag="Dxgf900gtf5eca7T020n" version="14.9.6" type="github">
  <diagram id="QBia1MGx6juQdR3fmkDq" name="Page-1">
    <mxGraphModel dx="1209" dy="562" grid="1" gridSize="10" guides="1" tooltips="1" connect="1" arrows="1" fold="1" page="1" pageScale="1" pageWidth="850" pageHeight="1100" math="0" shadow="0">
      <root>
        <mxCell id="0" />
        <mxCell id="1" parent="0" />
        <mxCell id="t7pYGwR6TO1rcqiv9-Wj-1" value="&lt;h2 id=&quot;6&quot; style=&quot;box-sizing: inherit; margin: 1.5rem 0px 0.75rem; font-size: 26.1px; font-family: &amp;quot;source sans pro&amp;quot;, arial, sans-serif; font-weight: bold; line-height: 1.55em; color: rgb(34, 34, 34); font-style: normal; letter-spacing: normal; text-indent: 0px; text-transform: none; word-spacing: 0px; background-color: rgb(255, 255, 255);&quot;&gt;Changing Ownership and Group&lt;/h2&gt;&lt;p style=&quot;box-sizing: inherit; margin: 0px 0px 1.3rem; color: rgb(34, 34, 34); font-family: &amp;quot;source sans pro&amp;quot;, arial, sans-serif; font-size: 18px; font-style: normal; font-weight: 400; letter-spacing: normal; text-indent: 0px; text-transform: none; word-spacing: 0px; background-color: rgb(255, 255, 255);&quot;&gt;For changing the ownership of a file/directory, you can use the following command:&lt;/p&gt;&lt;p style=&quot;box-sizing: inherit; margin: 0px 0px 1.3rem; color: rgb(34, 34, 34); font-family: &amp;quot;source sans pro&amp;quot;, arial, sans-serif; font-size: 18px; font-style: normal; font-weight: 400; letter-spacing: normal; text-indent: 0px; text-transform: none; word-spacing: 0px; background-color: rgb(255, 255, 255);&quot;&gt;&lt;/p&gt;&lt;pre style=&quot;box-sizing: inherit; overflow: auto; margin: 0px 0px 1.5rem; padding: 0.938rem; font-size: 1rem; font-family: monaco, menlo, consolas, &amp;quot;courier new&amp;quot;, monospace; background: rgb(247, 247, 247); border: 1px solid rgba(0, 0, 0, 0.1); border-radius: 0.1875rem; line-height: 20px; display: block; word-break: break-all; overflow-wrap: break-word; color: rgb(34, 34, 34); font-style: normal; font-weight: 400; letter-spacing: normal; text-indent: 0px; text-transform: none; word-spacing: 0px;&quot;&gt;chown user filename&lt;/pre&gt;&lt;p style=&quot;box-sizing: inherit; margin: 0px 0px 1.3rem; color: rgb(34, 34, 34); font-family: &amp;quot;source sans pro&amp;quot;, arial, sans-serif; font-size: 18px; font-style: normal; font-weight: 400; letter-spacing: normal; text-indent: 0px; text-transform: none; word-spacing: 0px; background-color: rgb(255, 255, 255);&quot;&gt;In case you want to change the user as well as group for a file or directory use the command&lt;/p&gt;&lt;p style=&quot;box-sizing: inherit; margin: 0px 0px 1.3rem; color: rgb(34, 34, 34); font-family: &amp;quot;source sans pro&amp;quot;, arial, sans-serif; font-size: 18px; font-style: normal; font-weight: 400; letter-spacing: normal; text-indent: 0px; text-transform: none; word-spacing: 0px; background-color: rgb(255, 255, 255);&quot;&gt;&lt;/p&gt;&lt;pre style=&quot;box-sizing: inherit; overflow: auto; margin: 0px 0px 1.5rem; padding: 0.938rem; font-size: 1rem; font-family: monaco, menlo, consolas, &amp;quot;courier new&amp;quot;, monospace; background: rgb(247, 247, 247); border: 1px solid rgba(0, 0, 0, 0.1); border-radius: 0.1875rem; line-height: 20px; display: block; word-break: break-all; overflow-wrap: break-word; color: rgb(34, 34, 34); font-style: normal; font-weight: 400; letter-spacing: normal; text-indent: 0px; text-transform: none; word-spacing: 0px;&quot;&gt;chown user:group filename&lt;/pre&gt;" style="text;whiteSpace=wrap;html=1;" vertex="1" parent="1">
          <mxGeometry x="40" y="40" width="550" height="340" as="geometry" />
        </mxCell>
        <mxCell id="t7pYGwR6TO1rcqiv9-Wj-2" value="" style="shape=image;verticalLabelPosition=bottom;labelBackgroundColor=#ffffff;verticalAlign=top;aspect=fixed;imageAspect=0;image=https://cdn.guru99.com/images/chown_comm(1).png;" vertex="1" parent="1">
          <mxGeometry x="55" y="430" width="520" height="356" as="geometry" />
        </mxCell>
        <mxCell id="t7pYGwR6TO1rcqiv9-Wj-3" value="" style="shape=image;verticalLabelPosition=bottom;labelBackgroundColor=#ffffff;verticalAlign=top;aspect=fixed;imageAspect=0;image=https://cdn.guru99.com/images/chgrp.png;" vertex="1" parent="1">
          <mxGeometry x="55" y="990" width="520" height="213" as="geometry" />
        </mxCell>
        <mxCell id="t7pYGwR6TO1rcqiv9-Wj-4" value="&lt;p style=&quot;box-sizing: inherit; margin: 0px 0px 1.3rem; color: rgb(34, 34, 34); font-family: &amp;quot;source sans pro&amp;quot;, arial, sans-serif; font-size: 18px; font-style: normal; font-weight: 400; letter-spacing: normal; text-indent: 0px; text-transform: none; word-spacing: 0px; background-color: rgb(255, 255, 255);&quot;&gt;In case you want to change group-owner only, use the command&lt;/p&gt;&lt;p style=&quot;box-sizing: inherit; margin: 0px 0px 1.3rem; color: rgb(34, 34, 34); font-family: &amp;quot;source sans pro&amp;quot;, arial, sans-serif; font-size: 18px; font-style: normal; font-weight: 400; letter-spacing: normal; text-indent: 0px; text-transform: none; word-spacing: 0px; background-color: rgb(255, 255, 255);&quot;&gt;&lt;/p&gt;&lt;pre style=&quot;box-sizing: inherit; overflow: auto; margin: 0px 0px 1.5rem; padding: 0.938rem; font-size: 1rem; font-family: monaco, menlo, consolas, &amp;quot;courier new&amp;quot;, monospace; background: rgb(247, 247, 247); border: 1px solid rgba(0, 0, 0, 0.1); border-radius: 0.1875rem; line-height: 20px; display: block; word-break: break-all; overflow-wrap: break-word; color: rgb(34, 34, 34); font-style: normal; font-weight: 400; letter-spacing: normal; text-indent: 0px; text-transform: none; word-spacing: 0px;&quot;&gt;chgrp group_name filename&lt;/pre&gt;&lt;p style=&quot;box-sizing: inherit; margin: 0px 0px 1.3rem; color: rgb(34, 34, 34); font-family: &amp;quot;source sans pro&amp;quot;, arial, sans-serif; font-size: 18px; font-style: normal; font-weight: 400; letter-spacing: normal; text-indent: 0px; text-transform: none; word-spacing: 0px; background-color: rgb(255, 255, 255);&quot;&gt;&#39;&lt;strong style=&quot;box-sizing: inherit ; font-weight: bold&quot;&gt;chgrp&#39;&lt;/strong&gt;&lt;span&gt;&amp;nbsp;&lt;/span&gt;stands for change group.&lt;/p&gt;" style="text;whiteSpace=wrap;html=1;" vertex="1" parent="1">
          <mxGeometry x="80" y="810" width="550" height="160" as="geometry" />
        </mxCell>
      </root>
    </mxGraphModel>
  </diagram>
</mxfile>
